<svg width="32" height="41" viewBox="0 0 32 41" fill="none" xmlns="http://www.w3.org/2000/svg">
<path d="M31.5727 10.2091L21.7909 0.427273C21.5182 0.154546 21.15 0 20.7636 0H1.45455C0.65 0 0 0.65 0 1.45455V39.2727C0 40.0773 0.65 40.7273 1.45455 40.7273H30.5455C31.35 40.7273 32 40.0773 32 39.2727V11.2409C32 10.8545 31.8455 10.4818 31.5727 10.2091ZM28.6455 11.9091H20.0909V3.35455L28.6455 11.9091ZM28.7273 37.4545H3.27273V3.27273H17V13.0909C17 13.5972 17.2011 14.0828 17.5592 14.4408C17.9172 14.7989 18.4028 15 18.9091 15H28.7273V37.4545Z" fill="black"/>
</svg>
