<svg width="208" height="65" viewBox="0 0 208 65" fill="none" xmlns="http://www.w3.org/2000/svg">
<path d="M7.296 48C6.048 48 5.088 47.664 4.416 46.992C3.744 46.32 3.408 45.36 3.408 44.112V18.048C3.408 16.8 3.744 15.84 4.416 15.168C5.088 14.496 6.048 14.16 7.296 14.16H24.048C25.008 14.16 25.728 14.416 26.208 14.928C26.72 15.408 26.976 16.112 26.976 17.04C26.976 18 26.72 18.736 26.208 19.248C25.728 19.728 25.008 19.968 24.048 19.968H10.512V27.888H22.944C23.936 27.888 24.672 28.144 25.152 28.656C25.664 29.136 25.92 29.856 25.92 30.816C25.92 31.776 25.664 32.512 25.152 33.024C24.672 33.504 23.936 33.744 22.944 33.744H10.512V42.192H24.048C25.008 42.192 25.728 42.448 26.208 42.96C26.72 43.44 26.976 44.144 26.976 45.072C26.976 46.032 26.72 46.768 26.208 47.28C25.728 47.76 25.008 48 24.048 48H7.296ZM39.6739 48.528C37.9459 48.528 36.3939 48.192 35.0179 47.52C33.6419 46.848 32.5699 45.936 31.8019 44.784C31.0339 43.632 30.6499 42.336 30.6499 40.896C30.6499 39.168 31.0979 37.808 31.9939 36.816C32.8899 35.792 34.3459 35.072 36.3619 34.656C38.3779 34.208 41.0499 33.984 44.3779 33.984H46.9219V37.728H44.4259C42.7939 37.728 41.4659 37.824 40.4419 38.016C39.4499 38.176 38.7299 38.464 38.2819 38.88C37.8659 39.296 37.6579 39.872 37.6579 40.608C37.6579 41.504 37.9619 42.24 38.5699 42.816C39.2099 43.392 40.1219 43.68 41.3059 43.68C42.2339 43.68 43.0499 43.472 43.7539 43.056C44.4899 42.608 45.0659 42.016 45.4819 41.28C45.8979 40.512 46.1059 39.648 46.1059 38.688V33.168C46.1059 31.76 45.7859 30.768 45.1459 30.192C44.5059 29.584 43.4179 29.28 41.8819 29.28C41.0179 29.28 40.0739 29.392 39.0499 29.616C38.0579 29.808 36.9539 30.144 35.7379 30.624C35.0339 30.944 34.4099 31.024 33.8659 30.864C33.3219 30.672 32.9059 30.352 32.6179 29.904C32.3299 29.424 32.1859 28.912 32.1859 28.368C32.1859 27.792 32.3459 27.248 32.6659 26.736C32.9859 26.192 33.5139 25.792 34.2499 25.536C35.7539 24.928 37.1619 24.512 38.4739 24.288C39.8179 24.064 41.0499 23.952 42.1699 23.952C44.6339 23.952 46.6499 24.32 48.2179 25.056C49.8179 25.76 51.0179 26.864 51.8179 28.368C52.6179 29.84 53.0179 31.744 53.0179 34.08V44.736C53.0179 45.92 52.7299 46.832 52.1539 47.472C51.5779 48.112 50.7459 48.432 49.6579 48.432C48.5699 48.432 47.7219 48.112 47.1139 47.472C46.5379 46.832 46.2499 45.92 46.2499 44.736V42.96L46.5859 43.248C46.3939 44.336 45.9779 45.28 45.3379 46.08C44.7299 46.848 43.9459 47.456 42.9859 47.904C42.0259 48.32 40.9219 48.528 39.6739 48.528ZM67.4486 48.528C66.0406 48.528 64.5846 48.4 63.0806 48.144C61.6086 47.888 60.2646 47.456 59.0486 46.848C58.4086 46.528 57.9446 46.128 57.6566 45.648C57.4006 45.136 57.2886 44.624 57.3206 44.112C57.3526 43.6 57.5126 43.136 57.8006 42.72C58.1206 42.304 58.5206 42.032 59.0006 41.904C59.5126 41.744 60.0726 41.792 60.6806 42.048C61.9926 42.592 63.1926 42.976 64.2806 43.2C65.3686 43.424 66.4406 43.536 67.4966 43.536C68.8726 43.536 69.8646 43.328 70.4726 42.912C71.1126 42.464 71.4326 41.888 71.4326 41.184C71.4326 40.544 71.2246 40.064 70.8086 39.744C70.3926 39.424 69.7846 39.2 68.9846 39.072L63.9446 38.16C61.9606 37.808 60.4246 37.088 59.3366 36C58.2806 34.88 57.7526 33.456 57.7526 31.728C57.7526 30.128 58.2006 28.752 59.0966 27.6C59.9926 26.416 61.2246 25.52 62.7926 24.912C64.3926 24.272 66.2006 23.952 68.2166 23.952C69.6566 23.952 70.9846 24.08 72.2006 24.336C73.4166 24.592 74.5846 25.008 75.7046 25.584C76.2806 25.872 76.6806 26.256 76.9046 26.736C77.1606 27.216 77.2406 27.712 77.1446 28.224C77.0806 28.736 76.8886 29.2 76.5686 29.616C76.2486 30.032 75.8326 30.304 75.3206 30.432C74.8406 30.56 74.2806 30.496 73.6406 30.24C72.6166 29.76 71.6726 29.424 70.8086 29.232C69.9446 29.008 69.1126 28.896 68.3126 28.896C66.8726 28.896 65.8326 29.136 65.1926 29.616C64.5526 30.064 64.2326 30.64 64.2326 31.344C64.2326 31.888 64.4086 32.352 64.7606 32.736C65.1446 33.088 65.7206 33.328 66.4886 33.456L71.5286 34.368C73.6086 34.72 75.1926 35.424 76.2806 36.48C77.3686 37.504 77.9126 38.912 77.9126 40.704C77.9126 43.136 76.9526 45.056 75.0326 46.464C73.1446 47.84 70.6166 48.528 67.4486 48.528ZM88.0129 57.072C87.1809 57.072 86.4929 56.848 85.9489 56.4C85.4049 55.952 85.0849 55.36 84.9889 54.624C84.8929 53.92 85.0209 53.168 85.3729 52.368L88.5889 45.264V48.24L80.0929 28.752C79.7729 27.92 79.6609 27.152 79.7569 26.448C79.8849 25.712 80.2369 25.136 80.8129 24.72C81.4209 24.272 82.2529 24.048 83.3089 24.048C84.1729 24.048 84.8609 24.256 85.3729 24.672C85.9169 25.056 86.4129 25.808 86.8609 26.928L92.5249 41.328H90.9889L96.8449 26.88C97.2929 25.792 97.7889 25.056 98.3329 24.672C98.9089 24.256 99.6769 24.048 100.637 24.048C101.469 24.048 102.125 24.272 102.605 24.72C103.117 25.136 103.421 25.696 103.517 26.4C103.645 27.104 103.517 27.872 103.133 28.704L91.8529 54.288C91.3729 55.376 90.8289 56.112 90.2209 56.496C89.6449 56.88 88.9089 57.072 88.0129 57.072ZM124.215 48.528C120.567 48.528 117.447 47.808 114.855 46.368C112.263 44.928 110.263 42.912 108.855 40.32C107.479 37.696 106.791 34.608 106.791 31.056C106.791 28.4 107.175 26.016 107.943 23.904C108.743 21.76 109.895 19.936 111.399 18.432C112.903 16.896 114.727 15.712 116.871 14.88C119.047 14.048 121.495 13.632 124.215 13.632C125.815 13.632 127.431 13.84 129.063 14.256C130.727 14.64 132.167 15.2 133.383 15.936C134.183 16.384 134.727 16.944 135.015 17.616C135.303 18.288 135.383 18.96 135.255 19.632C135.159 20.304 134.887 20.88 134.439 21.36C134.023 21.84 133.495 22.144 132.855 22.272C132.215 22.4 131.495 22.256 130.695 21.84C129.735 21.264 128.727 20.848 127.671 20.592C126.615 20.336 125.543 20.208 124.455 20.208C122.311 20.208 120.503 20.64 119.031 21.504C117.591 22.336 116.503 23.552 115.767 25.152C115.031 26.752 114.663 28.72 114.663 31.056C114.663 33.36 115.031 35.328 115.767 36.96C116.503 38.592 117.591 39.84 119.031 40.704C120.503 41.536 122.311 41.952 124.455 41.952C125.479 41.952 126.519 41.824 127.575 41.568C128.663 41.312 129.703 40.912 130.695 40.368C131.527 39.952 132.263 39.808 132.903 39.936C133.575 40.032 134.119 40.32 134.535 40.8C134.983 41.248 135.255 41.792 135.351 42.432C135.479 43.072 135.415 43.712 135.159 44.352C134.903 44.992 134.423 45.536 133.719 45.984C132.535 46.784 131.079 47.408 129.351 47.856C127.623 48.304 125.911 48.528 124.215 48.528ZM153.785 48.432C152.761 48.432 151.913 48.208 151.241 47.76C150.601 47.28 150.073 46.56 149.657 45.6L137.561 18.72C137.113 17.76 136.985 16.912 137.177 16.176C137.369 15.408 137.769 14.816 138.377 14.4C138.985 13.952 139.721 13.728 140.585 13.728C141.673 13.728 142.505 13.984 143.081 14.496C143.657 14.976 144.137 15.696 144.521 16.656L155.129 41.184H152.729L163.337 16.608C163.753 15.648 164.249 14.928 164.825 14.448C165.401 13.968 166.201 13.728 167.225 13.728C168.089 13.728 168.793 13.952 169.337 14.4C169.913 14.816 170.265 15.408 170.393 16.176C170.553 16.912 170.425 17.76 170.009 18.72L157.913 45.6C157.465 46.56 156.921 47.28 156.281 47.76C155.673 48.208 154.841 48.432 153.785 48.432Z" fill="currentColor"/>
<path d="M207.573 21.2091L197.791 11.4273C197.518 11.1545 197.15 11 196.764 11H177.455C176.65 11 176 11.65 176 12.4545V50.2727C176 51.0773 176.65 51.7273 177.455 51.7273H206.545C207.35 51.7273 208 51.0773 208 50.2727V22.2409C208 21.8545 207.845 21.4818 207.573 21.2091ZM204.645 22.9091H196.091V14.3545L204.645 22.9091ZM204.727 48.4545H179.273V14.2727H193V24.0909C193 24.5972 193.201 25.0828 193.559 25.4408C193.917 25.7989 194.403 26 194.909 26H204.727V48.4545Z" fill="currentColor"/>
</svg>
